# xmcd CD database file
#
# Track frame offsets:
#	150
#	18250
#	32950
#	63585
#	77872
#	96217
#	126445
#	146897
#	157812
#	187702
#
# Disc length: 2902 seconds
#
# Revision: 1
# Processed by: cddbd v1.4PL0 Copyright (c) Steve Scherf et al.
# Submitted via: CDex 1.50Beta7
#
DISCID=820b540a
DTITLE=KRG Big Band Neustadt-Weinstrasse Germany - Hay Werner
DYEAR=1995
DGENRE=Blues
TTITLE0=Hay Burner
TTITLE1=Lester leaps in
TTITLE2=Splanky
TTITLE3=When Sunny gets blue (Annie Gemmer)
TTITLE4=Every step of the way
TTITLE5=Blue in green
TTITLE6=A song for a lovely lady
TTITLE7=Orange colored sky (Andrea Pommer)
TTITLE8=Worm suite
TTITLE9=One more time Chuck Korea
EXTD=YEAR: 1995
EXTT0=
EXTT1=
EXTT2=
EXTT3=
EXTT4=
EXTT5=
EXTT6=
EXTT7=
EXTT8=
EXTT9=
PLAYORDER=
